<?xml version="1.0" standalone="no"?>
<!DOCTYPE svg PUBLIC "-//W3C//DTD SVG 20010904//EN"
 "http://www.w3.org/TR/2001/REC-SVG-20010904/DTD/svg10.dtd">
<svg version="1.0" xmlns="http://www.w3.org/2000/svg"
 width="1024.000000pt" height="1024.000000pt" viewBox="0 0 1024.000000 1024.000000"
 preserveAspectRatio="xMidYMid meet">
<metadata>
Created by potrace 1.14, written by Peter Selinger 2001-2017
</metadata>
<g transform="translate(0.000000,1024.000000) scale(0.100000,-0.100000)"
fill="#000000" stroke="none">
<path d="M0 5120 l0 -5120 705 0 705 0 -1 88 c-2 195 10 932 16 997 12 139 37
294 87 530 49 233 50 243 44 355 -3 63 -17 190 -30 281 -18 131 -27 173 -45
197 -35 50 -87 171 -104 242 -9 36 -32 106 -51 157 -20 50 -44 132 -53 182
-15 82 -19 90 -38 86 -60 -13 -255 -27 -360 -27 -124 1 -216 16 -319 52 -231
80 -419 282 -486 521 -80 291 11 577 275 857 l88 94 -12 116 c-65 633 -73
1185 -25 1621 73 668 286 1332 602 1886 121 212 344 526 511 720 129 150 399
417 551 543 362 302 774 539 1215 698 l120 43 -1697 0 -1698 1 0 -5120z"/>
<path d="M6580 10171 c444 -154 789 -326 1125 -561 714 -498 1195 -1069 1495
-1775 153 -359 286 -833 360 -1275 11 -69 23 -135 25 -147 4 -15 36 -38 112
-78 251 -133 387 -264 479 -458 18 -40 40 -97 48 -127 13 -49 15 205 15 2218
l1 2272 -1927 -1 -1928 0 195 -68z"/>
<path d="M4600 9685 c-610 -49 -1116 -186 -1524 -412 -565 -313 -1062 -812
-1418 -1423 -255 -438 -430 -985 -505 -1580 -15 -121 -18 -217 -17 -575 0
-452 4 -508 60 -1020 27 -242 26 -302 -5 -364 -11 -20 -88 -107 -172 -194
-158 -164 -208 -223 -209 -245 0 -29 51 -33 204 -17 272 29 520 53 596 59 41
4 101 9 133 13 l57 6 0 -44 c0 -55 27 -115 75 -168 33 -37 40 -53 44 -115 1
-8 19 -5 54 9 16 7 17 -3 16 -141 -1 -188 22 -318 76 -425 25 -49 39 -92 42
-131 l6 -57 41 -8 41 -9 23 -78 c12 -44 29 -147 37 -230 9 -83 18 -162 20
-176 19 -102 45 -365 45 -460 0 -102 -8 -152 -65 -435 -77 -379 -84 -461 -88
-992 l-2 -353 50 -21 c55 -24 200 -56 272 -60 l46 -3 -4 69 c-2 39 -4 252 -4
475 1 459 3 476 76 780 83 343 84 344 83 560 0 166 -5 226 -32 405 -27 179
-77 683 -69 691 1 1 35 4 76 5 l73 2 34 -86 c37 -97 140 -303 208 -417 96
-161 151 -507 163 -1030 7 -328 -19 -722 -62 -935 -20 -93 -82 -282 -143 -430
l-50 -120 2091 -3 c1150 -1 2092 0 2094 2 5 5 6 22 29 561 8 204 19 380 24
392 5 12 34 56 65 97 31 42 52 76 48 76 -4 0 -43 -11 -87 -25 -43 -13 -98 -27
-123 -31 -38 -6 -50 -13 -81 -54 -34 -44 -42 -49 -92 -57 -73 -11 -747 -7
-980 6 -261 14 -481 57 -842 162 -368 107 -819 295 -953 397 -86 65 -168 223
-280 538 -59 165 -207 662 -202 677 1 5 31 -69 67 -165 86 -235 209 -522 273
-638 80 -147 139 -200 323 -292 358 -179 874 -347 1294 -423 182 -33 425 -46
900 -48 452 -3 514 6 852 114 199 64 212 75 302 262 110 228 161 409 227 816
49 301 97 532 195 934 106 436 115 495 121 782 l5 241 61 39 c190 123 304 220
622 534 132 130 292 283 355 340 177 159 300 283 300 302 0 40 -138 123 -363
218 -125 53 -187 92 -209 129 -24 40 -40 115 -88 407 -67 409 -134 689 -236
986 -248 725 -658 1245 -1359 1724 -341 233 -724 404 -1199 534 -526 144 -936
186 -1436 146z m2144 -2212 c13 -104 137 -1577 134 -1594 -2 -14 -132 66 -638
396 -348 228 -636 413 -637 411 -2 -2 13 -197 33 -435 21 -237 35 -433 33
-435 -6 -6 -399 -49 -404 -44 -5 5 -145 1651 -141 1656 3 2 289 -183 638 -411
348 -228 635 -413 636 -411 2 1 -13 196 -34 433 -20 237 -34 434 -31 438 7 6
296 40 364 42 l41 1 6 -47z m1046 -54 c349 -28 638 -54 641 -58 8 -8 -14 -327
-23 -336 -4 -4 -69 -2 -145 4 -76 6 -172 14 -213 17 -41 3 -85 7 -97 9 -19 3
-23 -1 -23 -23 0 -32 -66 -1032 -76 -1141 l-6 -73 -96 7 c-54 3 -108 8 -122
10 -14 2 -65 6 -115 10 -49 4 -91 8 -92 9 -2 1 16 278 39 614 22 337 38 615
35 618 -4 4 -403 42 -461 44 -9 0 -1 205 11 303 l6 49 51 -6 c28 -3 337 -29
686 -57z m-3435 -336 c290 -65 489 -261 565 -558 101 -396 -103 -805 -505
-1010 -249 -127 -555 -168 -775 -105 -266 76 -454 265 -532 536 -33 113 -33
324 0 437 96 332 387 589 778 687 166 42 320 46 469 13z m-1810 -763 c108 -34
183 -79 260 -155 215 -215 284 -561 169 -846 -64 -159 -215 -335 -386 -449
-87 -58 -745 -396 -754 -387 -8 8 -584 1431 -584 1442 0 12 571 296 698 347
67 27 188 61 257 71 17 3 84 4 150 2 89 -2 138 -9 190 -25z m-585 -2400 c-55
-23 -70 -24 -70 -6 0 19 16 24 70 25 l45 0 -45 -19z m557 -115 c49 -133 50
-135 34 -171 l-16 -36 -53 77 c-44 62 -57 90 -70 153 -18 91 -14 112 26 112
28 0 30 -5 79 -135z m-44 -282 c3 -5 8 -29 12 -55 7 -44 5 -48 -13 -48 -11 0
-102 -30 -202 -66 -199 -72 -200 -72 -200 -3 l0 36 183 71 c182 70 212 79 220
65z"/>
<path d="M3923 6711 c-201 -59 -336 -186 -383 -362 -43 -155 17 -367 132 -475
77 -72 143 -97 265 -102 147 -6 267 32 378 120 144 114 209 296 172 475 -32
151 -116 266 -235 325 -59 29 -76 33 -166 35 -75 2 -117 -2 -163 -16z"/>
<path d="M2150 5964 c-70 -14 -146 -41 -253 -92 -89 -42 -117 -60 -114 -71 11
-38 319 -787 326 -794 11 -11 155 61 258 129 97 65 152 124 196 213 98 199 -4
499 -200 591 -46 22 -158 34 -213 24z"/>
<path d="M10223 5338 c-7 -29 -35 -98 -62 -153 -62 -124 -154 -232 -347 -405
-76 -68 -256 -240 -399 -380 -143 -140 -315 -304 -381 -363 l-121 -107 -7 -87
c-14 -172 -52 -371 -136 -713 -79 -319 -136 -588 -185 -880 -59 -350 -92 -498
-153 -685 -125 -380 -280 -642 -472 -798 -47 -37 -88 -78 -92 -90 -6 -22 -28
-498 -28 -614 l0 -63 1200 0 1200 0 0 2695 c0 1482 -1 2695 -3 2695 -1 0 -8
-24 -14 -52z"/>
</g>
</svg>
