<svg viewBox="0 0 200 200" version="1.1" xmlns="http://www.w3.org/2000/svg" style="fill-rule:evenodd;clip-rule:evenodd;stroke-linejoin:round;stroke-miterlimit:2;"><defs><style>.svg-icon{fill:#fff;}</style></defs><path class="svg-icon" d="M195.82,51.549c4.18,15.698 4.18,48.451 4.18,48.451c0,-0 0,32.752 -4.18,48.452c-2.3,8.66 -9.076,15.481 -17.683,17.797c-15.595,4.206 -78.137,4.206 -78.137,4.206c-0,-0 -62.542,-0 -78.139,-4.206c-8.605,-2.316 -15.383,-9.137 -17.683,-17.797c-4.178,-15.7 -4.178,-48.452 -4.178,-48.452c-0,-0 -0,-32.753 4.178,-48.451c2.3,-8.662 9.078,-15.482 17.683,-17.797c15.597,-4.207 78.139,-4.207 78.139,-4.207c-0,0 62.542,0 78.137,4.207c8.607,2.315 15.383,9.135 17.683,17.797Zm-116.275,78.189l52.273,-29.737l-52.273,-29.738l0,59.475Z" style="fill-rule:nonzero;"/></svg>